{
  "accessors": [
    {
      "bufferView": 2,
      "componentType": 5126,
      "count": 12430,
      "max": [
        2.6523265838623047,
        5.199193477630615,
        10.944913864135742
      ],
      "min": [
        -2.354750394821167,
        3.871696710586548,
        6.368650436401367
      ],
      "type": "VEC3"
    },
    {
      "bufferView": 2,
      "byteOffset": 149160,
      "componentType": 5126,
      "count": 12430,
      "max": [
        1.0,
        1.0,
        1.0
      ],
      "min": [
        -1.0,
        -1.0,
        -1.0
      ],
      "type": "VEC3"
    },
    {
      "bufferView": 1,
      "componentType": 5126,
      "count": 12430,
      "max": [
        0.9434491395950317,
        0.9980080127716064
      ],
      "min": [
        0.0018831320339813828,
        0.0019920319318771362
      ],
      "type": "VEC2"
    },
    {
      "bufferView": 1,
      "byteOffset": 99440,
      "componentType": 5126,
      "count": 12430,
      "max": [
        0.9434491395950317,
        0.9980080127716064
      ],
      "min": [
        0.0018831320339813828,
        0.0019920319318771362
      ],
      "type": "VEC2"
    },
    {
      "bufferView": 0,
      "componentType": 5125,
      "count": 37938,
      "type": "SCALAR"
    }
  ],
  "asset": {
    "extras": {
      "author": "Blank2574 (https://sketchfab.com/Blank2574)",
      "license": "CC-BY-4.0 (http://creativecommons.org/licenses/by/4.0/)",
      "source": "https://sketchfab.com/3d-models/spaceship-35ac90e5785b44b08c6c5da4f651ee70",
      "title": "spaceship"
    },
    "generator": "Sketchfab-11.95.0",
    "version": "2.0"
  },
  "bufferViews": [
    {
      "buffer": 0,
      "byteLength": 151752,
      "name": "floatBufferViews",
      "target": 34963
    },
    {
      "buffer": 0,
      "byteLength": 198880,
      "byteOffset": 151752,
      "byteStride": 8,
      "name": "floatBufferViews",
      "target": 34962
    },
    {
      "buffer": 0,
      "byteLength": 298320,
      "byteOffset": 350632,
      "byteStride": 12,
      "name": "floatBufferViews",
      "target": 34962
    }
  ],
  "buffers": [
    {
      "byteLength": 648952,
      "uri": "scene.bin"
    }
  ],
  "images": [
    {
      "uri": "textures/lambert2_baseColor.png"
    }
  ],
  "materials": [
    {
      "doubleSided": true,
      "name": "lambert2",
      "pbrMetallicRoughness": {
        "baseColorTexture": {
          "index": 0
        },
        "metallicFactor": 0.5914868455453611,
        "roughnessFactor": 0.7003614662945601
      }
    }
  ],
  "meshes": [
    {
      "name": "pSphere2_lambert2_0",
      "primitives": [
        {
          "attributes": {
            "NORMAL": 1,
            "POSITION": 0,
            "TEXCOORD_0": 2,
            "TEXCOORD_1": 3
          },
          "indices": 4,
          "material": 0,
          "mode": 4
        }
      ]
    }
  ],
  "nodes": [
    {
      "children": [
        1
      ],
      "matrix": [
        1.0,
        0.0,
        0.0,
        0.0,
        0.0,
        2.220446049250313e-16,
        -1.0,
        0.0,
        0.0,
        1.0,
        2.220446049250313e-16,
        0.0,
        0.0,
        0.0,
        0.0,
        1.0
      ],
      "name": "Sketchfab_model"
    },
    {
      "children": [
        2
      ],
      "matrix": [
        0.009999999776482582,
        0.0,
        0.0,
        0.0,
        0.0,
        0.0,
        0.009999999776482582,
        0.0,
        0.0,
        -0.009999999776482582,
        0.0,
        0.0,
        0.0,
        0.0,
        0.0,
        1.0
      ],
      "name": "6aa96f9617f840b4aa69b9e3eb5eb28b.fbx"
    },
    {
      "children": [
        3
      ],
      "name": "RootNode"
    },
    {
      "children": [
        4
      ],
      "matrix": [
        0.9999999403953552,
        0.0,
        0.0,
        0.0,
        0.0,
        0.9999999403953552,
        0.0,
        0.0,
        0.0,
        0.0,
        0.9999999403953552,
        0.0,
        0.0,
        0.0,
        0.0,
        1.0
      ],
      "name": "pSphere2"
    },
    {
      "mesh": 0,
      "name": "pSphere2_lambert2_0"
    }
  ],
  "samplers": [
    {
      "magFilter": 9729,
      "minFilter": 9987,
      "wrapS": 10497,
      "wrapT": 10497
    }
  ],
  "scene": 0,
  "scenes": [
    {
      "name": "Sketchfab_Scene",
      "nodes": [
        0
      ]
    }
  ],
  "textures": [
    {
      "sampler": 0,
      "source": 0
    }
  ]
}
