{
  "accessors": [
    {
      "bufferView": 2,
      "componentType": 5126,
      "count": 4158,
      "max": [
        6.9530792236328125,
        7.0513458251953125,
        5.024488925933838
      ],
      "min": [
        -6.434741020202637,
        -8.351363182067871,
        -0.0227889996021986
      ],
      "type": "VEC3"
    },
    {
      "bufferView": 2,
      "byteOffset": 49896,
      "componentType": 5126,
      "count": 4158,
      "max": [
        0.9999762773513794,
        0.9999698400497437,
        0.9997708201408386
      ],
      "min": [
        -0.9997857213020325,
        -0.9999808073043823,
        -0.9997724890708923
      ],
      "type": "VEC3"
    },
    {
      "bufferView": 1,
      "componentType": 5126,
      "count": 4158,
      "max": [
        18.746089935302734,
        0.9882810115814209
      ],
      "min": [
        1.433593988418579,
        0.05859399959445
      ],
      "type": "VEC2"
    },
    {
      "bufferView": 0,
      "componentType": 5125,
      "count": 27456,
      "type": "SCALAR"
    },
    {
      "bufferView": 2,
      "byteOffset": 99792,
      "componentType": 5126,
      "count": 849,
      "max": [
        6.923456192016602,
        7.021509170532227,
        4.9944891929626465
      ],
      "min": [
        -6.404850006103516,
        -8.322077751159668,
        -0.001576000009663403
      ],
      "type": "VEC3"
    },
    {
      "bufferView": 2,
      "byteOffset": 109980,
      "componentType": 5126,
      "count": 849,
      "max": [
        0.9999586343765259,
        0.9999955892562866,
        1.0
      ],
      "min": [
        -0.998904287815094,
        -0.999984860420227,
        -0.0001999983942368999
      ],
      "type": "VEC3"
    },
    {
      "bufferView": 1,
      "byteOffset": 33264,
      "componentType": 5126,
      "count": 849,
      "max": [
        18.746089935302734,
        0.9882810115814209
      ],
      "min": [
        1.433593988418579,
        0.05859399959445
      ],
      "type": "VEC2"
    },
    {
      "bufferView": 0,
      "byteOffset": 109824,
      "componentType": 5125,
      "count": 1638,
      "type": "SCALAR"
    },
    {
      "bufferView": 2,
      "byteOffset": 120168,
      "componentType": 5126,
      "count": 9859,
      "max": [
        6.388105869293213,
        8.025408744812012,
        8.270079612731934
      ],
      "min": [
        -5.9630842208862305,
        -8.479716300964355,
        -0.001576000009663403
      ],
      "type": "VEC3"
    },
    {
      "bufferView": 2,
      "byteOffset": 238476,
      "componentType": 5126,
      "count": 9859,
      "max": [
        0.9998751878738403,
        0.9999995231628418,
        1.0
      ],
      "min": [
        -0.9998736381530762,
        -0.9999995231628418,
        -1.0
      ],
      "type": "VEC3"
    },
    {
      "bufferView": 1,
      "byteOffset": 40056,
      "componentType": 5126,
      "count": 9859,
      "max": [
        18.738279342651367,
        0.9971399903297424
      ],
      "min": [
        0.011718999594449997,
        0.007813000120222569
      ],
      "type": "VEC2"
    },
    {
      "bufferView": 0,
      "byteOffset": 116376,
      "componentType": 5125,
      "count": 42684,
      "type": "SCALAR"
    },
    {
      "bufferView": 2,
      "byteOffset": 356784,
      "componentType": 5126,
      "count": 9866,
      "max": [
        8.39651870727539,
        8.937241554260254,
        8.761368751525879
      ],
      "min": [
        -7.474428176879883,
        -8.862441062927246,
        -0.011947999708354473
      ],
      "type": "VEC3"
    },
    {
      "bufferView": 2,
      "byteOffset": 475176,
      "componentType": 5126,
      "count": 9866,
      "max": [
        0.9998555183410645,
        0.9999372959136963,
        1.0
      ],
      "min": [
        -0.9999539852142334,
        -0.9999991655349731,
        -1.0
      ],
      "type": "VEC3"
    },
    {
      "bufferView": 1,
      "byteOffset": 118928,
      "componentType": 5126,
      "count": 9866,
      "max": [
        18.714839935302734,
        0.9960939884185791
      ],
      "min": [
        0.011718999594449997,
        0.0
      ],
      "type": "VEC2"
    },
    {
      "bufferView": 0,
      "byteOffset": 287112,
      "componentType": 5125,
      "count": 25896,
      "type": "SCALAR"
    },
    {
      "bufferView": 2,
      "byteOffset": 593568,
      "componentType": 5126,
      "count": 9910,
      "max": [
        5.157015800476074,
        8.052532196044922,
        7.4944891929626465
      ],
      "min": [
        -5.8326311111450195,
        -8.266250610351563,
        -0.0015750000020489097
      ],
      "type": "VEC3"
    },
    {
      "bufferView": 2,
      "byteOffset": 712488,
      "componentType": 5126,
      "count": 9910,
      "max": [
        0.9999638795852661,
        0.9999958276748657,
        1.0
      ],
      "min": [
        -0.9999638795852661,
        -0.9999916553497314,
        -1.0
      ],
      "type": "VEC3"
    },
    {
      "bufferView": 1,
      "byteOffset": 197856,
      "componentType": 5126,
      "count": 9910,
      "max": [
        15.46094036102295,
        0.9960939884185791
      ],
      "min": [
        0.011718999594449997,
        0.011718999594449997
      ],
      "type": "VEC2"
    },
    {
      "bufferView": 0,
      "byteOffset": 390696,
      "componentType": 5125,
      "count": 22467,
      "type": "SCALAR"
    },
    {
      "bufferView": 2,
      "byteOffset": 831408,
      "componentType": 5126,
      "count": 9946,
      "max": [
        1.7418099641799927,
        8.052532196044922,
        7.270080089569092
      ],
      "min": [
        -6.5618391036987305,
        -8.421256065368652,
        -0.001576000009663403
      ],
      "type": "VEC3"
    },
    {
      "bufferView": 2,
      "byteOffset": 950760,
      "componentType": 5126,
      "count": 9946,
      "max": [
        0.9999586343765259,
        0.9999638795852661,
        1.0
      ],
      "min": [
        -0.9995648264884949,
        -0.9999539852142334,
        -1.0
      ],
      "type": "VEC3"
    },
    {
      "bufferView": 1,
      "byteOffset": 277136,
      "componentType": 5126,
      "count": 9946,
      "max": [
        18.714839935302734,
        0.9960939884185791
      ],
      "min": [
        0.011718999594449997,
        0.007813000120222569
      ],
      "type": "VEC2"
    },
    {
      "bufferView": 0,
      "byteOffset": 480564,
      "componentType": 5125,
      "count": 20160,
      "type": "SCALAR"
    },
    {
      "bufferView": 2,
      "byteOffset": 1070112,
      "componentType": 5126,
      "count": 2376,
      "max": [
        2.8955349922180176,
        7.005427837371826,
        5.494487762451172
      ],
      "min": [
        -6.353774070739746,
        -8.479716300964355,
        -0.001576000009663403
      ],
      "type": "VEC3"
    },
    {
      "bufferView": 2,
      "byteOffset": 1098624,
      "componentType": 5126,
      "count": 2376,
      "max": [
        0.9999549388885498,
        0.9991260170936584,
        1.0
      ],
      "min": [
        -0.9983969926834106,
        -0.9979432821273804,
        -1.0
      ],
      "type": "VEC3"
    },
    {
      "bufferView": 1,
      "byteOffset": 356704,
      "componentType": 5126,
      "count": 2376,
      "max": [
        18.714839935302734,
        0.6679689884185791
      ],
      "min": [
        0.8945310115814209,
        0.011718999594449997
      ],
      "type": "VEC2"
    },
    {
      "bufferView": 0,
      "byteOffset": 561204,
      "componentType": 5125,
      "count": 4503,
      "type": "SCALAR"
    }
  ],
  "asset": {
    "extras": {
      "author": "kronpano (https://sketchfab.com/kronpano)",
      "license": "CC-BY-4.0 (http://creativecommons.org/licenses/by/4.0/)",
      "source": "https://sketchfab.com/3d-models/little-hamlet-in-the-sea-townscaper-model-6024f87d7b4740139069144714a85fa1",
      "title": "Little hamlet in the sea - Townscaper model"
    },
    "generator": "Sketchfab-11.97.0",
    "version": "2.0"
  },
  "bufferViews": [
    {
      "buffer": 0,
      "byteLength": 579216,
      "name": "floatBufferViews",
      "target": 34963
    },
    {
      "buffer": 0,
      "byteLength": 375712,
      "byteOffset": 579216,
      "byteStride": 8,
      "name": "floatBufferViews",
      "target": 34962
    },
    {
      "buffer": 0,
      "byteLength": 1127136,
      "byteOffset": 954928,
      "byteStride": 12,
      "name": "floatBufferViews",
      "target": 34962
    }
  ],
  "buffers": [
    {
      "byteLength": 2082064,
      "uri": "scene.bin"
    }
  ],
  "images": [
    {
      "uri": "textures/Town_baseColor.png"
    },
    {
      "uri": "textures/Town_metallicRoughness.png"
    }
  ],
  "materials": [
    {
      "doubleSided": true,
      "name": "Material.001",
      "pbrMetallicRoughness": {
        "baseColorFactor": [
          0.16111610572391852,
          0.16111610572391852,
          0.16111610572391852,
          1.0
        ],
        "metallicFactor": 0.8164532525886338,
        "roughnessFactor": 0.3112303838413317
      }
    },
    {
      "alphaMode": "BLEND",
      "doubleSided": true,
      "name": "Material.003",
      "pbrMetallicRoughness": {
        "baseColorFactor": [
          1.0,
          1.0,
          1.0,
          0.0
        ],
        "metallicFactor": 0.0,
        "roughnessFactor": 0.6
      }
    },
    {
      "doubleSided": true,
      "name": "Town",
      "pbrMetallicRoughness": {
        "baseColorTexture": {
          "index": 0
        },
        "metallicFactor": 0.2509971483987864,
        "metallicRoughnessTexture": {
          "index": 1
        }
      }
    }
  ],
  "meshes": [
    {
      "name": "Object_0",
      "primitives": [
        {
          "attributes": {
            "NORMAL": 1,
            "POSITION": 0,
            "TEXCOORD_0": 2
          },
          "indices": 3,
          "material": 0,
          "mode": 4
        }
      ]
    },
    {
      "name": "Object_1",
      "primitives": [
        {
          "attributes": {
            "NORMAL": 5,
            "POSITION": 4,
            "TEXCOORD_0": 6
          },
          "indices": 7,
          "material": 1,
          "mode": 4
        }
      ]
    },
    {
      "name": "Object_2",
      "primitives": [
        {
          "attributes": {
            "NORMAL": 9,
            "POSITION": 8,
            "TEXCOORD_0": 10
          },
          "indices": 11,
          "material": 2,
          "mode": 4
        }
      ]
    },
    {
      "name": "Object_3",
      "primitives": [
        {
          "attributes": {
            "NORMAL": 13,
            "POSITION": 12,
            "TEXCOORD_0": 14
          },
          "indices": 15,
          "material": 2,
          "mode": 4
        }
      ]
    },
    {
      "name": "Object_4",
      "primitives": [
        {
          "attributes": {
            "NORMAL": 17,
            "POSITION": 16,
            "TEXCOORD_0": 18
          },
          "indices": 19,
          "material": 2,
          "mode": 4
        }
      ]
    },
    {
      "name": "Object_5",
      "primitives": [
        {
          "attributes": {
            "NORMAL": 21,
            "POSITION": 20,
            "TEXCOORD_0": 22
          },
          "indices": 23,
          "material": 2,
          "mode": 4
        }
      ]
    },
    {
      "name": "Object_6",
      "primitives": [
        {
          "attributes": {
            "NORMAL": 25,
            "POSITION": 24,
            "TEXCOORD_0": 26
          },
          "indices": 27,
          "material": 2,
          "mode": 4
        }
      ]
    }
  ],
  "nodes": [
    {
      "children": [
        1
      ],
      "matrix": [
        1.0,
        0.0,
        0.0,
        0.0,
        0.0,
        2.220446049250313e-16,
        -1.0,
        0.0,
        0.0,
        1.0,
        2.220446049250313e-16,
        0.0,
        0.0,
        0.0,
        0.0,
        1.0
      ],
      "name": "Sketchfab_model"
    },
    {
      "children": [
        2,
        3,
        4,
        5,
        6,
        7,
        8
      ],
      "name": "WindowFixBoolean_1.obj.cleaner.materialmerger.gles"
    },
    {
      "mesh": 0,
      "name": "Object_2"
    },
    {
      "mesh": 1,
      "name": "Object_3"
    },
    {
      "mesh": 2,
      "name": "Object_4"
    },
    {
      "mesh": 3,
      "name": "Object_5"
    },
    {
      "mesh": 4,
      "name": "Object_6"
    },
    {
      "mesh": 5,
      "name": "Object_7"
    },
    {
      "mesh": 6,
      "name": "Object_8"
    }
  ],
  "samplers": [
    {
      "magFilter": 9729,
      "minFilter": 9987,
      "wrapS": 10497,
      "wrapT": 10497
    }
  ],
  "scene": 0,
  "scenes": [
    {
      "name": "Sketchfab_Scene",
      "nodes": [
        0
      ]
    }
  ],
  "textures": [
    {
      "sampler": 0,
      "source": 0
    },
    {
      "sampler": 0,
      "source": 1
    }
  ]
}
